<svg xmlns="http://www.w3.org/2000/svg" style="display: none;">
  <!-- Strategy Icon -->
  <symbol id="icon-strategy" viewBox="0 0 64 64">
    <path fill="currentColor" d="M32 8C18.7 8 8 18.7 8 32s10.7 24 24 24 24-10.7 24-24S45.3 8 32 8zm0 44c-11 0-20-9-20-20s9-20 20-20 20 9 20 20-9 20-20 20z"/>
    <path fill="currentColor" d="M32 16c-8.8 0-16 7.2-16 16s7.2 16 16 16 16-7.2 16-16-7.2-16-16-16zm0 28c-6.6 0-12-5.4-12-12s5.4-12 12-12 12 5.4 12 12-5.4 12-12 12z"/>
  </symbol>

  <!-- Punctuality Icon -->
  <symbol id="icon-punctuality" viewBox="0 0 64 64">
    <path fill="currentColor" d="M32 8C18.7 8 8 18.7 8 32s10.7 24 24 24 24-10.7 24-24S45.3 8 32 8zm0 44c-11 0-20-9-20-20s9-20 20-20 20 9 20 20-9 20-20 20z"/>
    <path fill="currentColor" d="M32 16v16l8 8"/>
  </symbol>

  <!-- Diligence Icon -->
  <symbol id="icon-diligence" viewBox="0 0 64 64">
    <rect x="16" y="16" width="32" height="32" fill="currentColor"/>
    <rect x="24" y="24" width="16" height="16" fill="white"/>
  </symbol>

  <!-- Technologies Icon -->
  <symbol id="icon-technologies" viewBox="0 0 64 64">
    <path fill="currentColor" d="M16 16l16 16 16-16M16 48l16-16 16 16"/>
  </symbol>

  <!-- Instagram Icon -->
  <symbol id="icon-instagram" viewBox="0 0 16 16">
    <path fill="currentColor" d="M8 4C5.8 4 4 5.8 4 8s1.8 4 4 4 4-1.8 4-4-1.8-4-4-4zm0 6.7c-1.5 0-2.7-1.2-2.7-2.7S6.5 5.3 8 5.3s2.7 1.2 2.7 2.7S9.5 10.7 8 10.7z"/>
    <circle cx="12.3" cy="3.7" r="0.9" fill="currentColor"/>
    <path fill="none" stroke="currentColor" stroke-width="1.5" d="M11.3 1.3h-6.6c-1.8 0-3.3 1.5-3.3 3.3v6.6c0 1.8 1.5 3.3 3.3 3.3h6.6c1.8 0 3.3-1.5 3.3-3.3V4.6c0-1.8-1.5-3.3-3.3-3.3z"/>
  </symbol>

  <!-- Twitter Icon -->
  <symbol id="icon-twitter" viewBox="0 0 16 16">
    <path fill="currentColor" d="M13.6 4.9c-.4.2-.9.3-1.4.4.5-.3.8-.8 1-1.3-.4.3-.9.5-1.4.6-.4-.4-1-.7-1.6-.7-1.2 0-2.2 1-2.2 2.2 0 .2 0 .3.1.5-1.8-.1-3.4-1-4.5-2.3-.2.3-.3.7-.3 1.1 0 .8.4 1.4 1 1.8-.4 0-.7-.1-1-.3v.1c0 1.1.8 2 1.8 2.2-.2.1-.4.1-.6.1-.1 0-.3 0-.4-.1.3 1 1.2 1.7 2.2 1.7-.8.6-1.8 1-2.9 1-.2 0-.4 0-.6-.1 1 .7 2.2 1 3.5 1 4.2 0 6.5-3.5 6.5-6.5v-.3c.5-.3.9-.8 1.2-1.3z"/>
  </symbol>

  <!-- Facebook Icon -->
  <symbol id="icon-facebook" viewBox="0 0 16 16">
    <path fill="currentColor" d="M9.5 15.4V8.7h2.2l.3-2.5H9.5V4.6c0-.7.2-1.2 1.2-1.2h1.3V1.2C11.8 1.2 10.9 1 9.9 1 7.7 1 6.2 2.4 6.2 4.8v1.4H4v2.5h2.2v6.7h3.3z"/>
  </symbol>

  <!-- LinkedIn Icon -->
  <symbol id="icon-linkedin" viewBox="0 0 16 16">
    <path fill="currentColor" d="M13.6 1H2.4C1.6 1 1 1.6 1 2.4v11.2c0 .8.6 1.4 1.4 1.4h11.2c.8 0 1.4-.6 1.4-1.4V2.4c0-.8-.6-1.4-1.4-1.4zM5.3 13.6H3.2V6.2h2.1v7.4zM4.2 5.3c-.7 0-1.2-.6-1.2-1.2 0-.7.6-1.2 1.2-1.2.7 0 1.2.6 1.2 1.2 0 .6-.5 1.2-1.2 1.2zm9.4 8.3h-2.1V9.7c0-.8 0-1.8-1.1-1.8s-1.3.9-1.3 1.8v3.9H6.9V6.2h2v1.1h.1c.3-.6 1.1-1.1 2.2-1.1 2.4 0 2.8 1.6 2.8 3.6v4.2z"/>
  </symbol>
</svg>